<?xml version="1.0" encoding="UTF-8"?>
<svg version="1.1" xmlns="http://www.w3.org/2000/svg" width="512" height="512">
<path d="M0 0 C0.7401535 -0.00067474 1.48030701 -0.00134949 2.2428894 -0.00204468 C40.21534773 0.0529916 74.57923289 14.15867064 102.1875 40.25 C103.06019531 41.04664063 103.93289063 41.84328125 104.83203125 42.6640625 C128.52792853 65.10567051 144.968562 99.86193483 146.32788086 132.63452148 C146.76217098 149.83392655 146.82535474 166.54101649 142.1875 183.25 C141.86604004 184.41740723 141.86604004 184.41740723 141.53808594 185.60839844 C130.8249274 223.17462685 104.60681634 255.08887919 70.58789062 274.03735352 C36.05404525 292.34310592 -4.92046928 296.23419553 -42.33984375 284.93359375 C-52.29820035 281.70758407 -61.62497934 277.23137522 -70.8125 272.25 C-72.18148437 271.51136719 -72.18148437 271.51136719 -73.578125 270.7578125 C-89.494395 261.67013576 -103.77671917 248.79621016 -114.8125 234.25 C-115.87404297 232.91195312 -115.87404297 232.91195312 -116.95703125 231.546875 C-117.61058594 230.68578125 -118.26414063 229.8246875 -118.9375 228.9375 C-119.51757812 228.17824219 -120.09765625 227.41898438 -120.6953125 226.63671875 C-123.2090404 221.26648188 -119.79925244 215.07542239 -117.9375 209.8125 C-107.47191595 178.72539902 -109.57426687 146.75662267 -123.8125 117.25 C-126.90440407 111.37916827 -130.18982778 105.17032025 -134.63671875 100.21875 C-135.8125 98.25 -135.8125 98.25 -135.68359375 95.4609375 C-134.68866692 91.79353905 -133.4053038 88.34471998 -131.875 84.875 C-131.57070068 84.1845459 -131.26640137 83.4940918 -130.95288086 82.78271484 C-125.56476191 70.9692206 -118.34363126 60.02459874 -109.8125 50.25 C-108.54792969 48.78626953 -108.54792969 48.78626953 -107.2578125 47.29296875 C-101.31676636 40.54352282 -95.00683028 34.68266876 -87.8125 29.25 C-87.03648437 28.65832031 -86.26046875 28.06664063 -85.4609375 27.45703125 C-60.27276797 9.05029198 -31.0574037 0.02531515 0 0 Z M-68.8125 82.25 C-74.85816947 91.86747879 -76.49082102 101.94911494 -74.234375 113.109375 C-71.15770952 121.89185645 -64.74171256 129.07599192 -56.5 133.3125 C-48.05860543 137.13219706 -39.07652531 137.59427179 -30.1875 134.8125 C-22.15485936 131.54597031 -14.76405109 124.99504013 -10.8125 117.25 C-6.88024715 107.25623949 -6.53023283 98.20131838 -10.8125 88.25 C-14.78637691 80.95917434 -19.48217555 76.12624487 -26.8125 72.25 C-27.43769531 71.91097656 -28.06289063 71.57195312 -28.70703125 71.22265625 C-43.22291975 64.59118719 -59.00096678 70.86508578 -68.8125 82.25 Z M61.62158203 72.94900513 C60.75631897 73.77704777 59.89105591 74.60509041 58.99957275 75.45822525 C58.07158875 76.37951092 57.14360474 77.30079659 56.1875 78.25 C55.20335451 79.21142383 54.21861857 80.17224357 53.2333374 81.13250351 C49.87815602 84.41896327 46.56013325 87.7419419 43.2421875 91.06591797 C41.97324361 92.33350387 40.70408773 93.60087759 39.43473816 94.86805725 C36.01768813 98.28058348 32.60376623 101.69622257 29.19057083 105.11260366 C25.60958946 108.69613103 22.02615282 112.27720189 18.44311523 115.8586731 C12.43635299 121.8636218 6.43168981 127.8706634 0.42822266 133.87890625 C-6.5137383 140.82632562 -13.45931772 147.77011188 -20.40675354 154.71205604 C-26.38160136 160.68237013 -32.3545037 166.65462528 -38.32577515 172.62851632 C-41.88828851 176.19258878 -45.45147443 179.75598178 -49.01641846 183.31762314 C-52.36101713 186.65933875 -55.70317075 190.00348043 -59.04343224 193.34953117 C-60.27049644 194.57791989 -61.4984166 195.80545424 -62.72724342 197.0320797 C-64.40112919 198.70324233 -66.07191927 200.37743934 -67.74194336 202.05245972 C-68.47587153 202.78304181 -68.47587153 202.78304181 -69.22462654 203.52838314 C-73.40468237 207.6713037 -73.40468237 207.6713037 -75.25 213.125 C-75.0424848 216.41716658 -75.0424848 216.41716658 -72.6875 219.125 C-69.26046938 221.65802263 -67.97849704 221.7382741 -63.8125 221.25 C-61.38899304 219.76748855 -61.38899304 219.76748855 -59.24658203 217.55099487 C-58.38131897 216.72295223 -57.51605591 215.89490959 -56.62457275 215.04177475 C-55.69658875 214.12048908 -54.76860474 213.19920341 -53.8125 212.25 C-52.82835451 211.28857617 -51.84361857 210.32775643 -50.8583374 209.36749649 C-47.50315602 206.08103673 -44.18513325 202.7580581 -40.8671875 199.43408203 C-39.59824361 198.16649613 -38.32908773 196.89912241 -37.05973816 195.63194275 C-33.64268813 192.21941652 -30.22876623 188.80377743 -26.81557083 185.38739634 C-23.23458946 181.80386897 -19.65115282 178.22279811 -16.06811523 174.6413269 C-10.06135299 168.6363782 -4.05668981 162.6293366 1.94677734 156.62109375 C8.8887383 149.67367438 15.83431772 142.72988812 22.78175354 135.78794396 C28.75660136 129.81762987 34.7295037 123.84537472 40.70077515 117.87148368 C44.26328851 114.30741122 47.82647443 110.74401822 51.39141846 107.18237686 C54.73601713 103.84066125 58.07817075 100.49651957 61.41843224 97.15046883 C62.64549644 95.92208011 63.8734166 94.69454576 65.10224342 93.4679203 C66.77612919 91.79675767 68.44691927 90.12256066 70.11694336 88.44754028 C70.60622881 87.96048555 71.09551426 87.47343083 71.59962654 86.97161686 C75.77968237 82.8286963 75.77968237 82.8286963 77.625 77.375 C77.4174848 74.08283342 77.4174848 74.08283342 75.0625 71.375 C69.85097098 67.52300029 66.06042569 68.64203655 61.62158203 72.94900513 Z M15.73046875 168.99609375 C10.51543496 176.61400387 8.97579312 185.17431547 10.1875 194.25 C13.08918509 204.74640167 19.05014369 212.95751587 28.40234375 218.58203125 C37.00788833 222.63422612 47.51994131 222.88127596 56.5 219.8125 C65.96160514 215.31823756 72.56346175 208.00961929 76.1875 198.25 C79.02895275 189.06140604 77.34996427 179.70541331 73.1875 171.25 C68.96706129 163.54193187 62.10151312 158.64326071 54.015625 155.37109375 C38.75881165 151.00764513 25.47926683 157.23953405 15.73046875 168.99609375 Z " fill="#000000" transform="translate(348.8125,16.75)"/>
<path d="M0 0 C19.75144921 16.63551003 32.33734699 39.91899821 35.99609375 65.5234375 C37.10468094 80.75701798 36.70407834 95.92327379 31.99609375 110.5234375 C31.68260986 111.49579346 31.68260986 111.49579346 31.36279297 112.48779297 C26.09659032 128.14439097 17.54093507 140.87284191 5.99609375 152.5234375 C5.36832031 153.20019531 4.74054688 153.87695312 4.09375 154.57421875 C-7.80843157 167.20453378 -24.54443054 174.86937885 -41.00390625 179.5234375 C-41.81601563 179.75804687 -42.628125 179.99265625 -43.46484375 180.234375 C-71.29542673 186.97230562 -98.48590076 179.94620356 -122.65625 165.9921875 C-128.68431957 162.17829463 -133.8286001 157.40421403 -139.00390625 152.5234375 C-139.68324219 151.92015625 -140.36257812 151.316875 -141.0625 150.6953125 C-156.90961839 136.02795946 -167.89712529 112.06850659 -169.1809082 90.55761719 C-169.85886551 56.12494862 -162.3450443 30.02987286 -138.31640625 4.4609375 C-124.93070467 -8.42411776 -107.97088999 -17.03738576 -90.00390625 -21.4765625 C-89.12605469 -21.70085937 -88.24820313 -21.92515625 -87.34375 -22.15625 C-56.49837521 -28.6359978 -24.20482554 -19.63509599 0 0 Z M-74.00390625 -1.4765625 C-74.266875 -0.65285156 -74.52984375 0.17085937 -74.80078125 1.01953125 C-76.00390625 3.5234375 -76.00390625 3.5234375 -78.5078125 4.859375 C-79.51714844 5.20226562 -80.52648437 5.54515625 -81.56640625 5.8984375 C-93.28494617 10.40340914 -100.59724618 17.91019205 -105.81640625 29.2109375 C-110.38010373 40.95248927 -109.73343151 52.01651433 -104.7109375 63.47265625 C-98.20057252 76.26648342 -89.55822388 82.00533162 -76.00390625 86.5234375 C-75.67390625 103.3534375 -75.34390625 120.1834375 -75.00390625 137.5234375 C-83.3195584 133.36561142 -87.5861921 130.06772287 -91.00390625 121.5234375 C-91.75239031 118.17386795 -92.44337614 114.82519604 -93.0625 111.44921875 C-94.13397469 108.11919989 -94.97561401 107.1793576 -98.00390625 105.5234375 C-100.96082334 104.77328555 -100.96082334 104.77328555 -104.00390625 105.5234375 C-106.70600025 107.65061788 -107.72624931 108.48753706 -109.00390625 111.5234375 C-109.91589382 121.42950943 -105.9750715 131.99615167 -99.765625 139.61328125 C-92.80638747 147.1588847 -85.5383564 153.46999248 -75.00390625 154.5234375 C-74.81828125 155.6165625 -74.63265625 156.7096875 -74.44140625 157.8359375 C-73.32093758 161.76543402 -73.32093758 161.76543402 -69.75390625 163.6484375 C-66.06267972 164.82858805 -66.06267972 164.82858805 -62.69140625 163.5859375 C-59.74168966 161.76070053 -59.74168966 161.76070053 -59.2421875 158.5703125 C-58.00390625 155.5234375 -58.00390625 155.5234375 -55.09765625 153.94140625 C-53.91171875 153.53535156 -52.72578125 153.12929688 -51.50390625 152.7109375 C-40.20172899 148.39919966 -32.24159191 140.46309121 -27.00390625 129.5234375 C-22.64510345 117.42738268 -23.17208258 105.87582508 -28.5703125 94.23828125 C-33.62458643 84.66683608 -41.30235839 77.53253287 -51.50390625 73.5234375 C-54.8779924 72.38607694 -54.8779924 72.38607694 -58.00390625 72.5234375 C-57.67390625 55.6934375 -57.34390625 38.8634375 -57.00390625 21.5234375 C-49.07404902 26.05478449 -49.07404902 26.05478449 -46.69140625 28.9609375 C-46.22089844 29.51652344 -45.75039062 30.07210937 -45.265625 30.64453125 C-41.82596401 35.76675087 -41.1490043 41.60104451 -40.078125 47.5625 C-39.24214993 50.68649483 -39.24214993 50.68649483 -36.55859375 52.42578125 C-33.4309124 53.7696321 -32.16656518 53.73984478 -29.00390625 52.5234375 C-26.30826521 50.50170672 -25.19613873 49.10013493 -24.12890625 45.8984375 C-23.72159611 34.90106366 -28.41899177 24.61532919 -35.25390625 16.1484375 C-40.48195618 10.59795277 -47.00916847 7.28357284 -54.00390625 4.4609375 C-57.83665556 2.84997457 -57.83665556 2.84997457 -59.31640625 -0.0390625 C-59.54328125 -0.8434375 -59.77015625 -1.6478125 -60.00390625 -2.4765625 C-62.14746576 -4.62012201 -63.45598941 -5.37821845 -66.44140625 -5.9140625 C-69.93949724 -5.31682745 -71.51087323 -3.96959552 -74.00390625 -1.4765625 Z " fill="#000000" transform="translate(186.00390625,108.4765625)"/>
<path d="M0 0 C0.79703701 -0.00779995 1.59407401 -0.01559991 2.41526365 -0.02363622 C5.08334431 -0.04356422 7.74999984 -0.02778922 10.41809082 -0.01205444 C12.33188204 -0.01883023 14.24566675 -0.02773313 16.15943909 -0.03860474 C21.35575644 -0.06140926 26.55157774 -0.05255687 31.74790382 -0.03670931 C37.18416309 -0.02405637 42.6203797 -0.03578874 48.05664062 -0.04364014 C57.18615348 -0.05273845 66.31546413 -0.04074395 75.44494629 -0.01693726 C86.00208791 0.01027427 96.55874675 0.00146025 107.11587667 -0.02606928 C116.17759381 -0.0487541 125.23916554 -0.05196347 134.30090189 -0.03887594 C139.71414511 -0.03107801 145.12716135 -0.03004932 150.54039001 -0.04655838 C155.62951206 -0.06099466 160.71801126 -0.05099659 165.80706596 -0.0220871 C167.67552595 -0.01547181 169.54403829 -0.0173815 171.41247749 -0.02840042 C173.96197349 -0.04205037 176.50946962 -0.02494859 179.05883789 0 C179.799598 -0.01115361 180.54035811 -0.02230722 181.3035655 -0.03379881 C185.21473428 0.04052589 186.89317121 0.52594067 189.98714447 3.00065041 C192.37422355 6.0796712 192.67151476 7.56258432 192.69348145 11.41616821 C192.69992676 12.50542603 192.70637207 13.59468384 192.7130127 14.71694946 C192.69367676 15.84487915 192.67434082 16.97280884 192.65441895 18.13491821 C192.67375488 19.2628479 192.69309082 20.39077759 192.7130127 21.55288696 C192.70334473 23.18677368 192.70334473 23.18677368 192.69348145 24.85366821 C192.6878418 25.84302368 192.68220215 26.83237915 192.6763916 27.85171509 C191.76634994 31.76661127 190.15223768 33.13713647 187.02941895 35.63491821 C184.17184645 36.1279724 181.91053617 36.31277438 179.05883789 36.26983643 C178.26180089 36.27763638 177.46476388 36.28543633 176.64357424 36.29347265 C173.97549359 36.31340065 171.30883805 36.29762564 168.64074707 36.28189087 C166.72695585 36.28866665 164.81317114 36.29756956 162.8993988 36.30844116 C157.70308145 36.33124569 152.50726015 36.32239329 147.31093407 36.30654573 C141.8746748 36.29389279 136.43845819 36.30562517 131.00219727 36.31347656 C121.87268442 36.32257487 112.74337376 36.31058037 103.6138916 36.28677368 C93.05674998 36.25956215 82.50009114 36.26837618 71.94296122 36.29590571 C62.88124408 36.31859053 53.81967235 36.3217999 44.757936 36.30871236 C39.34469278 36.30091444 33.93167654 36.29988575 28.51844788 36.31639481 C23.42932583 36.33083108 18.34082664 36.32083301 13.25177193 36.29192352 C11.38331194 36.28530824 9.5147996 36.28721793 7.6463604 36.29823685 C5.0968644 36.3118868 2.54936827 36.29478502 0 36.26983643 C-0.74076011 36.28099003 -1.48152022 36.29214364 -2.24472761 36.30363524 C-6.15589639 36.22931053 -7.83433332 35.74389575 -10.92830658 33.26918602 C-13.31538566 30.19016522 -13.61267687 28.7072521 -13.63464355 24.85366821 C-13.64108887 23.7644104 -13.64753418 22.67515259 -13.6541748 21.55288696 C-13.63483887 20.42495728 -13.61550293 19.29702759 -13.59558105 18.13491821 C-13.61491699 17.00698853 -13.63425293 15.87905884 -13.6541748 14.71694946 C-13.64450684 13.08306274 -13.64450684 13.08306274 -13.63464355 11.41616821 C-13.62900391 10.42681274 -13.62336426 9.43745728 -13.61755371 8.41812134 C-11.93789533 1.19242114 -6.62279226 -0.09971924 0 0 Z " fill="#000000" transform="translate(29.9705810546875,357.3650817871094)"/>
<path d="M0 0 C1.17840159 -0.00657338 1.17840159 -0.00657338 2.38060927 -0.01327956 C5.02756594 -0.02669294 7.67448929 -0.0328521 10.32147217 -0.03897095 C12.21348726 -0.04686991 14.10550084 -0.05513874 15.99751282 -0.06375122 C22.22364864 -0.08999506 28.44979128 -0.10528119 34.67596436 -0.11953735 C36.81733963 -0.12489606 38.95871485 -0.13027356 41.10009003 -0.13566971 C50.00620567 -0.15730188 58.91231947 -0.17603939 67.81845474 -0.1872921 C80.59201628 -0.20353602 93.36527383 -0.23672082 106.13872075 -0.29369295 C115.11457682 -0.33236523 124.0903515 -0.35192158 133.06628871 -0.35721266 C138.42992263 -0.36086983 143.79323252 -0.37292995 149.15677643 -0.4053154 C154.20310165 -0.43534817 159.24890596 -0.44172491 164.29530144 -0.42993164 C166.14724352 -0.4297105 167.99920944 -0.43804859 169.8510685 -0.45558548 C172.38058912 -0.47823534 174.90821417 -0.47000275 177.43774414 -0.45410156 C178.16985587 -0.46798365 178.90196761 -0.48186574 179.65626454 -0.49616849 C183.4930991 -0.43678006 185.9596238 0.16654822 188.9284935 2.51122093 C191.94879858 5.64825415 192.2240226 6.90404801 192.19940186 11.1890564 C192.19746826 12.89738647 192.19746826 12.89738647 192.19549561 14.64022827 C192.16326904 15.82036499 192.13104248 17.00050171 192.09783936 18.21640015 C192.10428467 19.40040405 192.11072998 20.58440796 192.11737061 21.80429077 C192.01015093 30.406233 192.01015093 30.406233 189.93431854 33.2947464 C186.56409865 35.84027145 183.59812893 35.70997955 179.53985596 35.66183472 C178.73480071 35.66807468 177.92974545 35.67431464 177.10029459 35.68074369 C174.39930957 35.69671453 171.6992219 35.68405374 168.99822998 35.67147827 C167.06326266 35.67689758 165.12829947 35.68401916 163.19334412 35.69271851 C157.93511303 35.7109775 152.67719534 35.70387365 147.41895866 35.69120216 C141.9208376 35.68108786 136.42274368 35.69046347 130.92462158 35.69674683 C121.69080783 35.7040278 112.45712198 35.69442368 103.22332764 35.67538452 C92.5418474 35.65361497 81.86067253 35.66066602 71.1791997 35.68269014 C62.01477456 35.70083128 52.85044145 35.70340875 43.68600416 35.69293547 C38.20965029 35.68669347 32.73344003 35.68588433 27.25709534 35.69908142 C22.10897816 35.71062054 16.96125541 35.70264957 11.81318092 35.67950439 C9.92172209 35.67420694 8.03023016 35.67574872 6.13878441 35.68455505 C3.56067961 35.69545338 0.98384609 35.68181691 -1.59417725 35.66183472 C-2.34631422 35.6707576 -3.09845119 35.67968049 -3.87338018 35.68887377 C-7.32383429 35.63684214 -9.20036218 35.4004005 -11.99062347 33.29573822 C-14.0116709 30.47852273 -14.04348769 28.66573413 -14.05841064 25.21640015 C-14.06356689 24.07429077 -14.06872314 22.9321814 -14.07403564 21.75546265 C-14.05856689 20.56694702 -14.04309814 19.3784314 -14.02716064 18.15390015 C-14.04262939 16.96538452 -14.05809814 15.7768689 -14.07403564 14.55233765 C-14.06887939 13.41022827 -14.06372314 12.2681189 -14.05841064 11.09140015 C-14.05389893 10.04854858 -14.04938721 9.00569702 -14.04473877 7.9312439 C-13.4025104 4.48502223 -12.21617808 3.32821303 -9.52716064 1.15390015 C-6.48975266 -0.36480385 -3.33272654 0.00223861 0 0 Z " fill="#000000" transform="translate(30.52716064453125,459.8460998535156)"/>
<path d="M0 0 C0.78716105 -0.00297112 1.5743221 -0.00594224 2.38533652 -0.0090034 C5.03152938 -0.01769748 7.67767703 -0.01919924 10.32388306 -0.02069092 C12.21766761 -0.02531854 14.11145123 -0.03034313 16.00523376 -0.03573608 C21.15605366 -0.04886635 26.30686051 -0.05530612 31.45769453 -0.05974674 C34.67410553 -0.0626761 37.89051295 -0.06678062 41.10692215 -0.07125092 C51.16574187 -0.08492671 61.22455344 -0.0945933 71.28338182 -0.09845281 C82.90361716 -0.10293567 94.523735 -0.12049384 106.14393461 -0.1494534 C115.12064684 -0.17105024 124.09732596 -0.181156 133.0740639 -0.18249393 C138.43811788 -0.18354327 143.80206142 -0.18947873 149.1660881 -0.20731354 C154.21069058 -0.22375996 159.25509917 -0.22596642 164.29971886 -0.21717453 C166.15206737 -0.21640235 168.00442616 -0.22077064 169.85674858 -0.23063278 C172.38397954 -0.24330011 174.91051838 -0.23750415 177.43774414 -0.22705078 C178.53925782 -0.23913539 178.53925782 -0.23913539 179.66302431 -0.25146413 C184.05537662 -0.20892313 186.85288161 0.4348337 190.34585571 3.14044189 C192.45341777 7.35556601 191.66390252 12.82161194 191.72085571 17.45294189 C191.77692993 19.16513916 191.77692993 19.16513916 191.83413696 20.91192627 C191.84573853 22.01471924 191.85734009 23.11751221 191.86929321 24.25372314 C191.88911255 25.26217285 191.90893188 26.27062256 191.92935181 27.30963135 C191.10794995 31.29463325 189.50663748 32.61885749 186.34585571 35.14044189 C183.48828322 35.63349608 181.22697293 35.81829807 178.37527466 35.77536011 C177.57823765 35.78316006 176.78120065 35.79096001 175.96001101 35.79899633 C173.29193035 35.81892433 170.62527481 35.80314933 167.95718384 35.78741455 C166.04339261 35.79419033 164.12960791 35.80309324 162.21583557 35.81396484 C157.01951822 35.83676937 151.82369692 35.82791697 146.62737083 35.81206942 C141.19111157 35.79941647 135.75489496 35.81114885 130.31863403 35.81900024 C121.18912118 35.82809855 112.05981053 35.81610406 102.93032837 35.79229736 C92.37318674 35.76508583 81.81652791 35.77389986 71.25939798 35.80142939 C62.19768085 35.82411421 53.13610912 35.82732358 44.07437277 35.81423604 C38.66112955 35.80643812 33.24811331 35.80540943 27.83488464 35.82191849 C22.7457626 35.83635477 17.6572634 35.82635669 12.56820869 35.7974472 C10.69974871 35.79083192 8.83123637 35.79274161 6.96279716 35.80376053 C4.41330117 35.81741048 1.86580504 35.8003087 -0.68356323 35.77536011 C-1.42432334 35.78651372 -2.16508346 35.79766732 -2.92829084 35.80915892 C-6.83917918 35.73483954 -8.51885044 35.24853861 -11.61385345 32.77570152 C-14.01548888 29.67372568 -14.27551701 28.20345879 -14.24789429 24.32403564 C-14.24531616 23.23026611 -14.24273804 22.13649658 -14.24008179 21.00958252 C-14.21172241 19.87714111 -14.18336304 18.74469971 -14.15414429 17.57794189 C-14.15672241 16.4416333 -14.15930054 15.30532471 -14.16195679 14.13458252 C-14.04988711 4.6366771 -14.04988711 4.6366771 -10.65414429 1.14044189 C-7.04658303 -0.06207853 -3.75504366 -0.00440398 0 0 Z " fill="#000000" transform="translate(30.654144287109375,408.85955810546875)"/>
<path d="M0 0 C0.79703701 -0.00779995 1.59407401 -0.01559991 2.41526365 -0.02363622 C5.08334431 -0.04356422 7.74999984 -0.02778922 10.41809082 -0.01205444 C12.33188204 -0.01883023 14.24566675 -0.02773313 16.15943909 -0.03860474 C21.35575644 -0.06140926 26.55157774 -0.05255687 31.74790382 -0.03670931 C37.18416309 -0.02405637 42.6203797 -0.03578874 48.05664062 -0.04364014 C57.18615348 -0.05273845 66.31546413 -0.04074395 75.44494629 -0.01693726 C86.00208791 0.01027427 96.55874675 0.00146025 107.11587667 -0.02606928 C116.17759381 -0.0487541 125.23916554 -0.05196347 134.30090189 -0.03887594 C139.71414511 -0.03107801 145.12716135 -0.03004932 150.54039001 -0.04655838 C155.62951206 -0.06099466 160.71801126 -0.05099659 165.80706596 -0.0220871 C167.67552595 -0.01547181 169.54403829 -0.0173815 171.41247749 -0.02840042 C173.96197349 -0.04205037 176.50946962 -0.02494859 179.05883789 0 C179.799598 -0.01115361 180.54035811 -0.02230722 181.3035655 -0.03379881 C185.21424475 0.04051659 186.89370198 0.52644709 189.98813629 2.99965858 C192.38574291 6.09492612 192.66114531 7.57867973 192.6583252 11.45132446 C192.66025879 12.54509399 192.66219238 13.63886353 192.66418457 14.76577759 C192.64033691 15.89821899 192.61648926 17.0306604 192.59191895 18.19741821 C192.60287598 19.33372681 192.61383301 20.4700354 192.62512207 21.64077759 C192.55106813 30.00887252 192.55106813 30.00887252 190.11901855 32.92764282 C186.33281611 36.0211016 183.19968762 35.78085556 178.49552917 35.77536011 C177.31606924 35.77981679 177.31606924 35.77981679 176.11278182 35.78436351 C173.46348293 35.79307322 170.81422909 35.79456067 168.16491699 35.79605103 C166.27127994 35.8006776 164.37764381 35.80570204 162.48400879 35.81109619 C157.32899758 35.82423787 152.17399941 35.83066862 147.01897407 35.83510685 C143.80039083 35.8380348 140.58181119 35.84213907 137.36322975 35.84661102 C127.29906724 35.86029076 117.2349129 35.86995502 107.17074174 35.87381291 C95.5420063 35.87829466 83.91338835 35.89584598 72.28468865 35.92481351 C63.30375033 35.94641091 54.32284512 35.95651616 45.3418811 35.95785403 C39.97445879 35.95890348 34.60714685 35.96484083 29.23975182 35.98267365 C24.19105876 35.99912071 19.14255943 36.00132621 14.09384918 35.99253464 C12.23988896 35.99176245 10.38591848 35.99613082 8.53198433 36.00599289 C6.00251054 36.01866024 3.47372824 36.0128642 0.94425964 36.00241089 C0.20923507 36.01046729 -0.52578951 36.0185237 -1.28308755 36.02682424 C-5.67709243 35.98430577 -8.47640519 35.34200774 -11.97058105 32.63491821 C-14.07814311 28.4197941 -13.28862786 22.95374816 -13.34558105 18.32241821 C-13.38296387 17.18095337 -13.42034668 16.03948853 -13.4588623 14.86343384 C-13.47046387 13.76064087 -13.48206543 12.6578479 -13.49401855 11.52163696 C-13.51383789 10.51318726 -13.53365723 9.50473755 -13.55407715 8.46572876 C-12.05108173 1.17399994 -6.59750518 -0.09933849 0 0 Z " fill="#000000" transform="translate(29.9705810546875,306.3650817871094)"/>
<path d="M0 0 C3.65558983 0.23174496 5.58513725 2.13516342 8.1875 4.5625 C9.50041016 5.77873047 9.50041016 5.77873047 10.83984375 7.01953125 C11.89380834 8.01240639 12.94713732 9.00595646 14 10 C15.31363903 11.23324662 16.62745256 12.46630739 17.94140625 13.69921875 C20.11160784 15.73711528 22.27911931 17.7775968 24.43994141 19.82543945 C27.99086154 23.18890826 31.56005519 26.52192093 35.20703125 29.78125 C35.85833008 30.3680957 36.50962891 30.95494141 37.18066406 31.55957031 C38.40761525 32.66172522 39.64234157 33.75530382 40.88574219 34.83886719 C42.53515625 36.328125 42.53515625 36.328125 45 39 C45 40.32 45 41.64 45 43 C43.75863281 43.04898438 42.51726562 43.09796875 41.23828125 43.1484375 C39.59633306 43.22349799 37.95440703 43.29904439 36.3125 43.375 C35.49587891 43.4059375 34.67925781 43.436875 33.83789062 43.46875 C27.64533457 43.69210661 27.64533457 43.69210661 22 46 C20.29141167 49.47368325 19.74570365 52.30883597 19.7215271 56.15693665 C19.71036362 57.17350845 19.69920013 58.19008026 19.68769836 59.23745728 C19.68553818 60.34156952 19.68337799 61.44568176 19.68115234 62.58325195 C19.66608391 64.33998985 19.66608391 64.33998985 19.65071106 66.13221741 C19.61983566 70.00090039 19.60283151 73.86951403 19.5859375 77.73828125 C19.56722936 80.42157503 19.54775262 83.10485218 19.5272522 85.78813171 C19.48050607 92.12738972 19.44374187 98.46666458 19.41057932 104.80600661 C19.37232843 112.02490376 19.32292607 119.24371118 19.27259517 126.46253264 C19.1693373 141.30829321 19.08152898 156.15410225 19 171 C7.45 171 -4.1 171 -16 171 C-16.02187378 165.43451294 -16.02187378 165.43451294 -16.04418945 159.7565918 C-16.09445119 147.5189113 -16.16087974 135.28136382 -16.23571491 123.04381084 C-16.28070529 115.62175095 -16.32011235 108.19973939 -16.34643555 100.77758789 C-16.36938951 94.3094071 -16.4027581 87.84137885 -16.44870156 81.37331897 C-16.47266922 77.94761907 -16.49137463 74.52207056 -16.49761391 71.09628868 C-16.50476927 67.27455411 -16.53517332 63.45319955 -16.56762695 59.6315918 C-16.56547432 57.92255928 -16.56547432 57.92255928 -16.5632782 56.17900085 C-16.58208542 54.62040344 -16.58208542 54.62040344 -16.60127258 53.03031921 C-16.60588155 52.1260403 -16.61049051 51.22176138 -16.61523914 50.29008007 C-17.0802156 47.52256018 -17.77858153 46.66762765 -20 45 C-22.65918166 44.11360611 -24.48064641 43.82010975 -27.23046875 43.68359375 C-28.03291016 43.64169922 -28.83535156 43.59980469 -29.66210938 43.55664062 C-30.49548828 43.51732422 -31.32886719 43.47800781 -32.1875 43.4375 C-33.4549707 43.37272461 -33.4549707 43.37272461 -34.74804688 43.30664062 C-36.83184433 43.20068482 -38.91590103 43.0998498 -41 43 C-40.58066539 38.05720481 -38.44441976 35.99202888 -34.9375 32.625 C-34.44088867 32.14385742 -33.94427734 31.66271484 -33.43261719 31.16699219 C-29.99707248 27.86435056 -26.45172055 24.70268828 -22.828125 21.609375 C-20.36103954 19.43749635 -18.08721697 17.09791796 -15.78515625 14.75390625 C-13.26882078 12.28162041 -10.60095068 10.00342215 -7.91796875 7.71484375 C-6.07151319 6.06393949 -4.42258177 4.32425165 -2.75 2.5 C-1.8425 1.675 -0.935 0.85 0 0 Z " fill="#000000" transform="translate(348,324)"/>
<path d="M0 0 C3.85220735 2.64082139 6.37450751 5.81102252 7.86328125 10.27734375 C8.64645165 16.57627137 8.18201407 21.37566127 4.3984375 26.58203125 C1.08601325 30.24002647 -1.86756544 31.95604771 -6.78515625 32.65234375 C-13.1123017 32.92969807 -17.11703354 32.17016085 -22.13671875 28.27734375 C-26.71249469 22.37700109 -27.81187161 17.56649403 -27.13671875 10.27734375 C-25.0727597 4.31479539 -21.19614443 0.92472681 -15.69921875 -2.03515625 C-9.74952508 -3.63141553 -5.3004219 -2.89207486 0 0 Z " fill="#000000" transform="translate(402.13671875,189.72265625)"/>
<path d="M0 0 C4.67394807 3.260894 8.19592213 7.31548247 9.6875 12.875 C10.36131945 18.82707183 9.01623029 23.01932921 5.6875 27.875 C1.8385116 31.94507912 -1.87390037 33.99830373 -7.5 34.1875 C-12.50935729 34.1222315 -16.2230046 32.74319813 -20.3125 29.875 C-25.15816853 24.78083565 -25.68076632 20.46780665 -25.58203125 13.6640625 C-25.09624676 8.63724909 -23.32065213 5.6934419 -19.6171875 2.33984375 C-13.4256906 -2.15964489 -7.13946558 -2.42472416 0 0 Z " fill="#000000" transform="translate(315.3125,103.125)"/>
<path d="M0 0 C0 16.17 0 32.34 0 49 C-8.29849826 46.23383391 -12.14287312 42.65815009 -16 35 C-18.6863757 28.40977783 -18.57168426 21.45829248 -16.2109375 14.76171875 C-13.44991872 8.80195871 -7.19747355 0 0 0 Z " fill="#000000" transform="translate(111,129)"/>
<path d="M0 0 C7.86739918 3.93369959 12.14305077 6.93540818 16.375 14.4375 C18.35299494 22.54727925 18.66871891 29.79854785 14.7734375 37.390625 C11.56527016 42.57172947 8.26040704 45.92315815 3 49 C2.01 49 1.02 49 0 49 C0 32.83 0 16.66 0 0 Z " fill="#000000" transform="translate(128,197)"/>
</svg>
